<svg width="13" height="28" viewBox="0 0 13 28" fill="none" xmlns="http://www.w3.org/2000/svg">
<g clip-path="url(#clip0_156_120)">
<path d="M13 3.77964C13.001 2.81464 12.362 1.84665 11.082 1.10765C8.536 -0.362355 4.42 -0.370355 1.89 1.09064C0.608 1.83064 -0.015 2.80564 0.00699997 3.77864H0V8.64664C0 11.1326 1.397 13.0576 3.448 14.1506C1.397 15.2446 0 17.4036 0 19.8896V24.3706H0.00500011C0.0660001 25.2856 0.704 26.1926 1.918 26.8926C4.464 28.3626 8.58 28.3706 11.11 26.9096C12.326 26.2076 12.95 25.2936 12.992 24.3706H13V19.8896C13 17.4036 11.603 15.2446 9.552 14.1516C11.603 13.0586 13 11.1346 13 8.64764V3.77964Z" fill="#E3E5FD"/>
<path d="M8.65972 14.3916C7.47472 15.0756 5.54672 15.0726 4.35372 14.3836C3.16072 13.6946 3.15472 12.5816 4.34072 11.8976C5.52572 11.2136 7.45372 11.2166 8.64672 11.9056C9.83872 12.5946 9.84472 13.7076 8.65972 14.3916Z" fill="#CDCFFA"/>
<path d="M13 3.77902L12.995 5.23402C13.014 6.20502 12.389 7.17602 11.111 7.91402C8.581 9.37502 4.465 9.36702 1.919 7.89702C0.642 7.16102 0.002 6.19702 0 5.23402V3.77902H0.00699997C-0.015 2.80602 0.608 1.83102 1.89 1.09102C4.42 -0.369982 8.536 -0.362982 11.082 1.10802C12.362 1.84602 13.001 2.81402 13 3.77902ZM11.082 20.102C8.536 18.632 4.42 18.624 1.89 20.085C0.608 20.825 -0.015 21.8 0.00699997 22.773H0V24.228C0.002 25.191 0.642 26.155 1.918 26.892C4.464 28.362 8.58 28.37 11.11 26.909C12.389 26.171 13.013 25.199 12.994 24.229L13 22.774C13.001 21.808 12.362 20.841 11.082 20.102Z" fill="#BCBFFF"/>
<path d="M11.1114 6.41502C8.58138 7.87602 4.46538 7.86902 1.91938 6.39802C-0.626618 4.92702 -0.639617 2.55202 1.89038 1.09102C4.42038 -0.369982 8.53638 -0.362982 11.0824 1.10802C13.6284 2.57902 13.6414 4.95402 11.1114 6.41502ZM11.0824 20.102C8.53638 18.632 4.42038 18.624 1.89038 20.085C-0.639617 21.546 -0.627618 23.922 1.91938 25.392C4.46538 26.862 8.58138 26.87 11.1114 25.409C13.6414 23.948 13.6284 21.572 11.0824 20.102Z" fill="#ACB0FF"/>
<path d="M7.5 14.8078V15.1018H7.493C7.449 16.3828 5.551 16.3828 5.506 15.1018H5.5V14.8008C6.147 14.9318 6.854 14.9348 7.5 14.8078ZM12.197 21.9108C11.652 21.2008 10.027 19.1188 9.64 18.6228C8.13 16.6868 5.213 16.6558 3.662 18.5588C3.314 18.9858 1.313 21.4398 0.824 22.0498C0.491 22.4668 0.259 22.9468 0.125 23.4558C0.368 24.1638 0.966 24.8418 1.919 25.3918C4.465 26.8618 8.581 26.8698 11.111 25.4088C12.077 24.8508 12.672 24.1598 12.897 23.4368C12.779 22.8858 12.543 22.3638 12.197 21.9108Z" fill="#CDCFFA"/>
</g>
<defs>
<clipPath id="clip0_156_120">
<rect width="13" height="28" fill="white"/>
</clipPath>
</defs>
</svg>
