<svg width="34" height="34" viewBox="0 0 34 34" fill="none" xmlns="http://www.w3.org/2000/svg">
<path fill-rule="evenodd" clip-rule="evenodd" d="M32.4965 24C29.8285 29.8971 23.8934 34 17 34C10.1066 34 4.17146 29.8971 1.50348 24H6C7.10457 24 8 23.1046 8 22C8 20.8954 7.10457 20 6 20H0.263866C0.0904756 19.0262 0 18.0237 0 17C0 15.9763 0.0904756 14.9738 0.263866 14H19C20.1046 14 21 13.1046 21 12C21 10.8954 20.1046 10 19 10H1.50348C4.17146 4.10295 10.1066 0 17 0C23.8934 0 29.8285 4.10295 32.4965 10H28C26.8954 10 26 10.8954 26 12C26 13.1046 26.8954 14 28 14H33.7361C33.9095 14.9738 34 15.9763 34 17C34 18.0237 33.9095 19.0262 33.7361 20H15C13.8954 20 13 20.8954 13 22C13 23.1046 13.8954 24 15 24H32.4965Z" fill="#6C6AFC"/>
</svg>
