<svg width="197" height="197" viewBox="0 0 197 197" fill="none" xmlns="http://www.w3.org/2000/svg">
<rect width="197" height="197" rx="12" fill="#E6E5FF"/>
<path d="M191.609 147.026C191.598 147.014 191.598 146.996 191.609 146.985V146.985C191.621 146.973 191.62 146.953 191.607 146.942C178.212 136.058 162.863 127.507 146.181 121.836C138.813 119.331 138.009 112.018 143.051 106.089V106.089C146.526 102.004 152.228 97.8827 154.053 92.8391C154.243 92.3134 154.375 91.7317 154.444 91.0904C154.521 90.3693 154.431 89.6414 154.295 88.929L151.042 71.9136C150.9 71.1708 150.852 70.4131 150.758 69.6626C150.706 69.2442 150.625 68.8349 150.518 68.4366C149.635 65.1549 147.75 62.0172 147.75 58.6188V50.4474V36.9375C147.75 16.5388 131.211 0 110.812 0H86.1875C65.7888 0 49.25 16.5388 49.25 36.9375V58.6188C49.25 62.0172 47.3651 65.1549 46.4823 68.4366C46.3752 68.8349 46.2944 69.2442 46.2422 69.6626C46.1484 70.4131 46.1004 71.1708 45.9583 71.9136L42.7093 88.9056C42.5701 89.6336 42.482 90.3761 42.549 91.1143C42.6181 91.8751 42.7598 92.5785 42.9712 93.2216C44.6279 98.2616 49.9172 102.98 53.5871 106.811V106.811C58.9126 112.371 58.3005 119.306 51.0082 121.774C34.2511 127.445 18.8365 136.017 5.39311 146.942C5.37981 146.953 5.37879 146.973 5.3909 146.985V146.985C5.40219 146.996 5.40219 147.014 5.39092 147.026C2.06008 150.367 0 154.976 0 160.062V184.688C0 191.493 5.50677 197 12.3125 197H184.688C191.493 197 197 191.493 197 184.688V160.062C197 154.976 194.94 150.367 191.609 147.026ZM61.5625 86.1875V83.1094C61.5625 81.4072 60.1866 80.0312 58.4844 80.0312H55.4062C53.704 80.0312 52.3281 78.6553 52.3281 76.9531V70.7969C52.3281 69.0947 53.704 67.7188 55.4062 67.7188H58.4844C60.1866 67.7188 61.5625 66.3428 61.5625 64.6406V61.5625V58.4844C61.5625 51.6848 67.0754 46.1719 73.875 46.1719V46.1719C82.4615 46.1719 96.0698 46.1719 104.656 46.1719V46.1719H123.125C129.925 46.1719 135.438 51.6848 135.438 58.4844V61.5625V64.6406C135.438 66.3428 136.813 67.7188 138.516 67.7188H141.594C143.296 67.7188 144.672 69.0947 144.672 70.7969V76.9531C144.672 78.6553 143.296 80.0312 141.594 80.0312H138.516C136.813 80.0312 135.438 81.4072 135.438 83.1094V86.1875C135.438 106.586 118.899 123.125 98.5 123.125C78.1013 123.125 61.5625 106.586 61.5625 86.1875ZM71.8599 122.648C73.7034 122.304 75.6085 122.734 77.2383 123.662C83.5124 127.233 90.7625 129.281 98.5 129.281C106.246 129.281 113.504 127.229 119.783 123.65C121.398 122.729 123.287 122.303 125.115 122.643V122.643C130.627 123.671 132.254 130.269 127.5 133.241C119.058 138.519 109.114 141.594 98.4169 141.594C87.7768 141.594 77.8821 138.553 69.4705 133.327C64.6675 130.343 66.3014 123.685 71.8599 122.648V122.648Z" fill="#6C6AFC"/>
<path d="M75.5286 67.294C76.9907 68.0789 78.8314 67.5033 79.6687 66.075C79.7549 65.9304 80.586 64.6406 83.1039 64.6406C85.591 64.6406 86.4775 65.9827 86.5237 66.0504C87.0716 67.1124 88.1489 67.7188 89.2632 67.7188C89.7372 67.7188 90.2205 67.611 90.6699 67.3771C92.1813 66.5983 92.7754 64.7422 91.9966 63.2308C91.0885 61.4671 88.192 58.4844 83.1039 58.4844C77.8988 58.4844 75.0454 61.5102 74.1773 63.2986C73.457 64.7853 74.0696 66.5152 75.5286 67.294Z" fill="#6C6AFC"/>
<path d="M106.316 67.294C107.778 68.0789 109.619 67.5033 110.456 66.075C110.542 65.9304 111.373 64.6406 113.891 64.6406C116.378 64.6406 117.265 65.9827 117.311 66.0504C117.859 67.1124 118.936 67.7188 120.05 67.7188C120.524 67.7188 121.008 67.611 121.457 67.3771C122.968 66.5983 123.562 64.7422 122.784 63.2308C121.876 61.4671 118.979 58.4844 113.891 58.4844C108.686 58.4844 105.832 61.5102 104.964 63.2986C104.244 64.7853 104.857 66.5152 106.316 67.294Z" fill="#6C6AFC"/>
<ellipse cx="50" cy="55" rx="6" ry="14" fill="#6C6AFC"/>
<ellipse cx="146.5" cy="55" rx="6.5" ry="14" fill="#6C6AFC"/>
<ellipse cx="137.331" cy="26.6204" rx="9.10581" ry="20.428" transform="rotate(-25.8998 137.331 26.6204)" fill="#6C6AFC"/>
<ellipse cx="8.55501" cy="21.0693" rx="8.55501" ry="21.0693" transform="matrix(-0.899559 -0.436798 -0.436798 0.899559 76.7891 10.8008)" fill="#6C6AFC"/>
</svg>
