<svg width="197" height="197" viewBox="0 0 197 197" fill="none" xmlns="http://www.w3.org/2000/svg">
<rect width="197" height="197" rx="12" fill="#E6E5FF"/>
<path d="M191.589 147.005L191.632 146.962C173.634 132.332 152.109 121.915 128.558 117.036C136.589 109.209 141.594 98.2907 141.594 86.1875C146.694 86.1875 150.828 82.0536 150.828 76.9531V70.7969C150.828 68.0697 149.625 65.6472 147.75 63.9573V36.9375C147.75 16.5388 131.211 0 110.812 0H86.1875C65.7888 0 49.25 16.5388 49.25 36.9375V63.9573C47.3754 65.6472 46.1719 68.0697 46.1719 70.7969V76.9531C46.1719 82.0536 50.3058 86.1875 55.4062 86.1875C55.4062 98.2907 60.4113 109.209 68.4452 117.036C44.8914 121.918 23.363 132.332 5.36825 146.962L5.41134 147.005C2.0685 150.348 0 154.965 0 160.062V184.688C0 191.493 5.50677 197 12.3125 197H184.688C191.493 197 197 191.493 197 184.688V160.062C197 154.965 194.931 150.348 191.589 147.005ZM61.5625 86.1875V83.1094C61.5625 81.4072 60.1866 80.0312 58.4844 80.0312H55.4062C53.704 80.0312 52.3281 78.6553 52.3281 76.9531V70.7969C52.3281 69.0947 53.704 67.7188 55.4062 67.7188H58.4844C60.1866 67.7188 61.5625 66.3428 61.5625 64.6406V61.5625V58.4844C61.5625 51.6848 67.0754 46.1719 73.875 46.1719C80.3021 46.1719 88.6941 31.9835 92 27C95.3059 31.9835 98.2291 46.1719 104.656 46.1719H123.125C129.925 46.1719 135.438 51.6848 135.438 58.4844V61.5625V64.6406C135.438 66.3428 136.813 67.7188 138.516 67.7188H141.594C143.296 67.7188 144.672 69.0947 144.672 70.7969V76.9531C144.672 78.6553 143.296 80.0312 141.594 80.0312H138.516C136.813 80.0312 135.438 81.4072 135.438 83.1094V86.1875C135.438 106.586 118.899 123.125 98.5 123.125C78.1013 123.125 61.5625 106.586 61.5625 86.1875ZM74.7523 122.134C81.5642 126.643 89.7181 129.281 98.5 129.281C107.282 129.281 115.436 126.643 122.248 122.134C127.357 122.999 132.396 124.073 137.306 125.471C127.296 135.385 113.617 141.594 98.4169 141.594C83.2356 141.594 69.5718 135.404 59.5679 125.507C64.5175 124.095 69.5964 123.005 74.7523 122.134Z" fill="#6C6AFC"/>
<path d="M75.5286 67.294C76.9907 68.0789 78.8314 67.5033 79.6687 66.075C79.7549 65.9304 80.586 64.6406 83.1039 64.6406C85.591 64.6406 86.4775 65.9827 86.5237 66.0504C87.0716 67.1124 88.1489 67.7188 89.2632 67.7188C89.7372 67.7188 90.2205 67.611 90.6699 67.3771C92.1813 66.5983 92.7754 64.7422 91.9966 63.2308C91.0885 61.4671 88.192 58.4844 83.1039 58.4844C77.8988 58.4844 75.0454 61.5102 74.1773 63.2986C73.457 64.7853 74.0696 66.5152 75.5286 67.294Z" fill="#6C6AFC"/>
<path d="M106.316 67.294C107.778 68.0789 109.619 67.5033 110.456 66.075C110.542 65.9304 111.373 64.6406 113.891 64.6406C116.378 64.6406 117.265 65.9827 117.311 66.0504C117.859 67.1124 118.936 67.7188 120.05 67.7188C120.524 67.7188 121.008 67.611 121.457 67.3771C122.968 66.5983 123.562 64.7422 122.784 63.2308C121.876 61.4671 118.979 58.4844 113.891 58.4844C108.686 58.4844 105.832 61.5102 104.964 63.2986C104.244 64.7853 104.857 66.5152 106.316 67.294Z" fill="#6C6AFC"/>
</svg>
