<svg width="197" height="197" viewBox="0 0 197 197" fill="none" xmlns="http://www.w3.org/2000/svg">
<rect width="197" height="197" rx="12" fill="#E6E5FF"/>
<g clip-path="url(#clip0_185_116)">
<path d="M191.589 147.005L191.632 146.962C181.662 138.854 170.5 131.959 158.268 126.511C155.451 117.674 153.906 108.273 153.906 98.5V49.25C153.906 22.0486 131.858 0 104.656 0H92.3438C65.1424 0 43.0938 22.0486 43.0938 49.25V98.5C43.0938 108.267 41.5516 117.664 38.7382 126.499C26.4903 131.87 15.5722 138.666 5.36825 146.962L5.41134 147.005C2.0685 150.348 0 154.965 0 160.062V184.688C0 191.493 5.50677 197 12.3125 197H184.688C191.493 197 197 191.493 197 184.688V160.062C197 154.965 194.932 150.348 191.589 147.005ZM61.5625 58.4844C61.5625 51.6848 67.0754 46.1719 73.875 46.1719C80.3021 46.1719 85.9597 42.8844 89.2656 37.901C92.5715 42.8844 98.2291 46.1719 104.656 46.1719H116.969C127.167 46.1719 135.438 54.4428 135.438 64.6406C135.438 65.2193 135.438 66.1797 135.438 67.7188C135.438 104.656 112.447 123.125 98.5 123.125C84.553 123.125 61.5625 104.656 61.5625 67.7188C61.5625 66.1797 61.5625 58.4844 61.5625 58.4844ZM79.037 121.398C85.4487 126.462 92.313 129.281 98.5 129.281C104.687 129.281 111.551 126.462 117.963 121.398C126.406 122.562 134.582 124.532 142.483 127.114C134.887 134.711 101.51 168.087 100.341 169.257C99.0171 170.58 98.0383 170.633 96.6993 169.297C95.5142 168.115 62.1166 134.717 54.5167 127.117C62.4151 124.532 70.5937 122.562 79.037 121.398Z" fill="#6C6AFC"/>
<path d="M79.6688 69.1562C79.755 69.0085 80.586 67.7188 83.104 67.7188C85.5911 67.7188 86.4776 69.0608 86.5238 69.1285C87.0717 70.1905 88.149 70.7969 89.2633 70.7969C89.7373 70.7969 90.2206 70.6891 90.67 70.4552C92.1813 69.6764 92.7754 67.8203 91.9967 66.309C91.0886 64.5452 88.1921 61.5625 83.104 61.5625C77.8988 61.5625 75.0454 64.5883 74.1774 66.3767C73.4602 67.8603 74.0727 69.5933 75.5287 70.3721C76.9908 71.157 78.8315 70.5845 79.6688 69.1562Z" fill="#6C6AFC"/>
<path d="M106.316 70.3721C107.778 71.157 109.619 70.5814 110.456 69.1532C110.542 69.0085 111.373 67.7188 113.891 67.7188C116.378 67.7188 117.265 69.0608 117.311 69.1285C117.859 70.1905 118.936 70.7969 120.05 70.7969C120.524 70.7969 121.008 70.6891 121.457 70.4552C122.968 69.6764 123.562 67.8203 122.784 66.309C121.876 64.5452 118.979 61.5625 113.891 61.5625C108.686 61.5625 105.832 64.5883 104.964 66.3767C104.244 67.8634 104.857 69.5933 106.316 70.3721Z" fill="#6C6AFC"/>
</g>
<defs>
<clipPath id="clip0_185_116">
<rect width="197" height="197" rx="12" fill="white"/>
</clipPath>
</defs>
</svg>
