<svg width="91" height="77" viewBox="0 0 91 77" fill="none" xmlns="http://www.w3.org/2000/svg">
<path d="M45.4999 18L91 77H0L45.4999 18Z" fill="url(#paint0_linear_176_70)"/>
<path d="M72.7661 21.2441C73.3816 24.3241 70.8613 27.8975 65.7593 31.1785C60.6573 34.4594 53.3919 37.1791 45.5611 38.7393C37.7304 40.2995 29.9756 40.5722 24.0032 39.4975C18.0306 38.423 14.3295 36.089 13.7139 33.0092L43.24 27.1267L72.7661 21.2441Z" fill="#BCBFFF"/>
<path d="M44.8464 35.1652C61.1532 31.9164 73.653 25.6833 72.7656 21.2432C71.8781 16.8031 57.9393 15.8374 41.6325 19.0862C25.3257 22.3351 12.8259 28.5682 13.7134 33.0083C14.6009 37.4484 28.5396 38.4141 44.8464 35.1652Z" fill="#ACB0FF"/>
<path d="M61.8507 22.4887C60.9036 17.7505 58.0156 13.6007 53.8223 10.9523C49.6289 8.30385 44.4736 7.37374 39.4903 8.36656C34.5071 9.35937 30.1042 12.1938 27.2502 16.2463C24.3962 20.2987 23.3249 25.2372 24.2719 29.9755L43.0613 26.2321L61.8507 22.4887Z" fill="url(#paint1_linear_176_70)"/>
<path d="M61.8502 22.4902C62.0396 23.4379 60.2417 24.741 56.8519 26.1132C53.4621 27.4854 48.7582 28.814 43.7751 29.8067C38.7917 30.7995 33.9373 31.3752 30.2798 31.4073C26.6222 31.4392 24.4609 30.9247 24.2715 29.977L43.0609 26.2336L61.8502 22.4902Z" fill="#CDCFFA"/>
<path d="M61.85 22.4902C61.6606 21.5425 59.4994 21.028 55.8418 21.06C52.1841 21.0919 47.3298 21.6676 42.3466 22.6604C37.3632 23.6532 32.6594 24.9818 29.2697 26.354C25.8799 27.7261 24.082 29.0293 24.2714 29.9769L43.0608 26.2336L61.85 22.4902Z" fill="#CDCFFA"/>
<path d="M33.0759 19.7024L32.8809 18.729L34.5551 14.3955L35.3957 14.2276L35.6656 15.575L35.1682 15.6743L34.1149 18.4172L34.1241 18.4629L37.5982 17.7689L37.7965 18.7595L33.0759 19.7024ZM36.0926 20.1687L35.8271 18.8441L35.7636 18.4085L34.9439 14.3178L36.1048 14.0859L37.2763 19.9323L36.0926 20.1687ZM41.1491 19.2923C40.657 19.3886 40.2096 19.3523 39.807 19.1833C39.4063 19.014 39.0651 18.7209 38.7834 18.3041C38.5034 17.887 38.3005 17.3585 38.1743 16.7187C38.0465 16.0811 38.0319 15.519 38.1306 15.0321C38.2312 14.5449 38.4345 14.149 38.7401 13.8445C39.0474 13.5377 39.4459 13.3354 39.9359 13.2376C40.4258 13.1397 40.8707 13.1735 41.2707 13.3391C41.6725 13.5043 42.0137 13.7924 42.2943 14.2034C42.5746 14.6126 42.7777 15.1361 42.9034 15.774C43.0321 16.4154 43.0465 16.9825 42.947 17.4754C42.8494 17.968 42.6483 18.3694 42.3438 18.6796C42.0392 18.9898 41.6411 19.194 41.1491 19.2923ZM40.9438 18.2675C41.2794 18.2004 41.5134 17.9785 41.646 17.6017C41.7787 17.2249 41.7767 16.6998 41.6396 16.0265C41.5508 15.583 41.4311 15.223 41.2805 14.9463C41.1318 14.6692 40.9595 14.473 40.7641 14.3577C40.5703 14.242 40.3619 14.2064 40.139 14.251C39.8054 14.3176 39.5718 14.5374 39.4384 14.9104C39.305 15.2835 39.304 15.8022 39.4352 16.4668C39.5251 16.916 39.645 17.2819 39.795 17.5647C39.9463 17.8452 40.12 18.0441 40.316 18.1613C40.5116 18.2766 40.7209 18.312 40.9438 18.2675ZM44.0764 17.5052L43.8813 16.5318L45.5553 12.1982L46.396 12.0303L46.6661 13.3777L46.1686 13.4771L45.1154 16.2199L45.1245 16.2656L48.5985 15.5717L48.797 16.5623L44.0764 17.5052ZM47.093 17.9715L46.8275 16.6469L46.764 16.2113L45.9444 12.1205L47.1051 11.8887L48.2768 17.735L47.093 17.9715Z" fill="#BCBFFF"/>
<path d="M13.9011 15.0988C14.279 15.0988 14.5854 14.7929 14.5854 14.4156C14.5854 14.0383 14.279 13.7324 13.9011 13.7324C13.5232 13.7324 13.2168 14.0383 13.2168 14.4156C13.2168 14.7929 13.5232 15.0988 13.9011 15.0988Z" fill="#CCCCCC"/>
<path d="M50.3952 5.98938C50.7731 5.98938 51.0795 5.68352 51.0795 5.30622C51.0795 4.92891 50.7731 4.62305 50.3952 4.62305C50.0173 4.62305 49.7109 4.92891 49.7109 5.30622C49.7109 5.68352 50.0173 5.98938 50.3952 5.98938Z" fill="#CCCCCC"/>
<path d="M22.796 12.821C23.048 12.821 23.2522 12.6171 23.2522 12.3656C23.2522 12.1141 23.048 11.9102 22.796 11.9102C22.5441 11.9102 22.3398 12.1141 22.3398 12.3656C22.3398 12.6171 22.5441 12.821 22.796 12.821Z" fill="#CCCCCC"/>
<path d="M64.7658 3.71363C65.0177 3.71363 65.2219 3.50972 65.2219 3.25818C65.2219 3.00664 65.0177 2.80273 64.7658 2.80273C64.5138 2.80273 64.3096 3.00664 64.3096 3.25818C64.3096 3.50972 64.5138 3.71363 64.7658 3.71363Z" fill="#CCCCCC"/>
<path d="M31.4644 1.69857H30.7451V0.980469H30.3592V1.69857H29.6396V2.08415H30.3592V2.80225H30.7451V2.08415H31.4644V1.69857Z" fill="#CCCCCC"/>
<path d="M71.6079 12.6283H70.8887V11.9102H70.5028V12.6283H69.7832V13.0138H70.5028V13.7319H70.8887V13.0138H71.6079V12.6283Z" fill="#CCCCCC"/>
<defs>
<linearGradient id="paint0_linear_176_70" x1="45.5" y1="18" x2="45.5" y2="77" gradientUnits="userSpaceOnUse">
<stop offset="0.660166" stop-color="#EAEBFD"/>
<stop offset="1" stop-color="#EAEBFD" stop-opacity="0"/>
</linearGradient>
<linearGradient id="paint1_linear_176_70" x1="27.8147" y1="17.3761" x2="61.5675" y2="24.6858" gradientUnits="userSpaceOnUse">
<stop stop-color="#E3E5FD"/>
<stop offset="1" stop-color="#D9DBFB"/>
</linearGradient>
</defs>
</svg>
