<svg width="35" height="33" viewBox="0 0 35 33" fill="none" xmlns="http://www.w3.org/2000/svg">
<path d="M18.4998 12L31.0572 31.5H5.94238L18.4998 12Z" fill="#EAEBFD"/>
<path d="M33.6344 11.123C33.9717 12.8137 32.5905 14.7752 29.7945 16.5762C26.9985 18.3771 23.0169 19.87 18.7254 20.7264C14.434 21.5828 10.1842 21.7325 6.91122 21.1426C3.63814 20.5528 1.60982 19.2716 1.27246 17.5811L17.4534 14.3521L33.6344 11.123Z" fill="#BCBFFF"/>
<path d="M18.3338 18.765C27.2703 16.9816 34.1205 13.5602 33.6342 11.123C33.1478 8.68576 25.5091 8.15566 16.5726 9.93898C7.63607 11.7223 0.785874 15.1437 1.27223 17.581C1.7586 20.0182 9.39733 20.5483 18.3338 18.765Z" fill="#ACB0FF"/>
<path d="M27.6524 11.8066C27.1334 9.20576 25.5507 6.92788 23.2527 5.47413C20.9546 4.02038 18.1294 3.50983 15.3984 4.0548C12.6675 4.59977 10.2546 6.15561 8.69052 8.38007C7.12646 10.6045 6.53936 13.3153 7.05838 15.9162L17.3554 13.8614L27.6524 11.8066Z" fill="url(#paint0_linear_174_28)"/>
<path d="M27.6526 11.8066C27.7564 12.3268 26.7711 13.0421 24.9134 13.7953C23.0557 14.5485 20.4779 15.2778 17.747 15.8227C15.016 16.3677 12.3557 16.6837 10.3513 16.7013C8.34681 16.7188 7.1624 16.4364 7.05859 15.9162L17.3556 13.8614L27.6526 11.8066Z" fill="#CDCFFA"/>
<path d="M27.6521 11.8073C27.5483 11.2871 26.3639 11.0047 24.3595 11.0223C22.355 11.0398 19.6947 11.3558 16.9638 11.9008C14.2328 12.4457 11.655 13.175 9.79738 13.9282C7.93973 14.6814 6.95442 15.3967 7.05822 15.9169L17.3552 13.8621L27.6521 11.8073Z" fill="#CDCFFA"/>
<path d="M18.5 33C25.4036 33 31 32.3284 31 31.5C31 30.6716 25.4036 30 18.5 30C11.5964 30 6 30.6716 6 31.5C6 32.3284 11.5964 33 18.5 33Z" fill="#D9DBFB"/>
<path d="M11.8833 10.2774L11.7764 9.74303L12.6939 7.3643L13.1546 7.27213L13.3025 8.01173L13.0299 8.06628L12.4527 9.57187L12.4577 9.59694L14.3616 9.21604L14.4703 9.75978L11.8833 10.2774ZM13.5365 10.5333L13.391 9.80623L13.3562 9.56711L12.907 7.32166L13.5432 7.19438L14.1852 10.4035L13.5365 10.5333ZM16.3076 10.0522C16.0379 10.1051 15.7927 10.0852 15.5721 9.9924C15.3525 9.89944 15.1655 9.73858 15.0111 9.50981C14.8577 9.28083 14.7465 8.99074 14.6773 8.63953C14.6073 8.28958 14.5993 7.98099 14.6534 7.71376C14.7085 7.44633 14.8199 7.22903 14.9874 7.06188C15.1558 6.89347 15.3742 6.78241 15.6427 6.7287C15.9112 6.67498 16.155 6.69356 16.3742 6.78443C16.5944 6.8751 16.7814 7.03324 16.9352 7.25888C17.0888 7.48347 17.2001 7.77085 17.269 8.12101C17.3395 8.47305 17.3474 8.78436 17.2929 9.05493C17.2394 9.32529 17.1292 9.54561 16.9623 9.7159C16.7954 9.88619 16.5772 9.99829 16.3076 10.0522ZM16.1951 9.48968C16.379 9.45289 16.5072 9.33108 16.5799 9.12423C16.6526 8.91739 16.6515 8.62917 16.5764 8.25957C16.5277 8.01617 16.4621 7.81853 16.3796 7.66664C16.2981 7.51455 16.2037 7.40685 16.0966 7.34355C15.9904 7.28004 15.8762 7.26051 15.754 7.28497C15.5712 7.32154 15.4432 7.44221 15.3701 7.64696C15.297 7.85172 15.2964 8.13649 15.3683 8.50128C15.4176 8.74782 15.4833 8.9487 15.5655 9.10393C15.6484 9.2579 15.7436 9.36706 15.851 9.43141C15.9582 9.49471 16.0729 9.51413 16.1951 9.48968ZM17.9118 9.07126L17.8049 8.53693L18.7223 6.1582L19.183 6.06603L19.331 6.80563L19.0584 6.86018L18.4812 8.36577L18.4862 8.39084L20.39 8.00994L20.4988 8.55368L17.9118 9.07126ZM19.565 9.3272L19.4195 8.60013L19.3847 8.36101L18.9355 6.11556L19.5716 5.98828L20.2137 9.19741L19.565 9.3272Z" fill="#BCBFFF"/>
<path d="M1.375 7.75C1.58211 7.75 1.75 7.58211 1.75 7.375C1.75 7.16789 1.58211 7 1.375 7C1.16789 7 1 7.16789 1 7.375C1 7.58211 1.16789 7.75 1.375 7.75Z" fill="#CCCCCC"/>
<path d="M21.375 2.75C21.5821 2.75 21.75 2.58211 21.75 2.375C21.75 2.16789 21.5821 2 21.375 2C21.1679 2 21 2.16789 21 2.375C21 2.58211 21.1679 2.75 21.375 2.75Z" fill="#CCCCCC"/>
<path d="M6.25 6.5C6.38807 6.5 6.5 6.38807 6.5 6.25C6.5 6.11193 6.38807 6 6.25 6C6.11193 6 6 6.11193 6 6.25C6 6.38807 6.11193 6.5 6.25 6.5Z" fill="#CCCCCC"/>
<path d="M29.25 1.5C29.3881 1.5 29.5 1.38807 29.5 1.25C29.5 1.11193 29.3881 1 29.25 1C29.1119 1 29 1.11193 29 1.25C29 1.38807 29.1119 1.5 29.25 1.5Z" fill="#CCCCCC"/>
<path d="M11 0.394175H10.6058V0H10.3944V0.394175H10V0.605825H10.3944V1H10.6058V0.605825H11V0.394175Z" fill="#CCCCCC"/>
<path d="M33 6.39417H32.6058V6H32.3944V6.39417H32V6.60583H32.3944V7H32.6058V6.60583H33V6.39417Z" fill="#CCCCCC"/>
<defs>
<linearGradient id="paint0_linear_174_28" x1="8.99986" y1="9.00023" x2="27.4999" y2="13.0002" gradientUnits="userSpaceOnUse">
<stop stop-color="#E3E5FD"/>
<stop offset="1" stop-color="#D9DBFB"/>
</linearGradient>
</defs>
</svg>
