<svg width="445" height="324" viewBox="0 0 445 324" fill="none" xmlns="http://www.w3.org/2000/svg">
<g clip-path="url(#clip0_76_2)">
<path d="M351.257 164.077C322.019 142.219 276.225 121.547 225.617 107.363C179.539 94.4475 134.596 88.2119 99.0571 89.8043L98.8721 85.6714C134.834 84.0608 180.244 90.3487 226.734 103.379C277.813 117.696 324.103 138.612 353.734 160.763L351.257 164.077Z" fill="#CCCCCC"/>
<path d="M348.221 180.913C348.247 200.279 344.187 219.432 336.307 237.122C335.649 238.603 334.963 240.07 334.25 241.524C320.544 269.598 297.729 292.199 269.528 305.641C241.326 319.083 209.402 322.573 178.962 315.541C148.522 308.51 121.363 291.371 101.915 266.922C82.4667 242.472 71.8766 212.154 71.8721 180.913C71.8721 177.715 71.981 174.542 72.1989 171.394C72.3023 169.793 72.4361 168.201 72.6002 166.62C76.2645 131.402 93.3082 98.9346 120.214 75.9175C147.12 52.9004 181.835 41.0901 217.196 42.9239C252.556 44.7576 285.864 60.0954 310.244 85.7721C334.625 111.449 348.219 145.505 348.221 180.913Z" fill="#7472FF"/>
<path opacity="0.1" d="M336.307 237.121C335.649 238.602 334.964 240.069 334.251 241.523C330.213 241.961 325.963 242.28 321.501 242.479C317.806 242.644 314.005 242.727 310.12 242.727C276.189 242.727 235.353 236.463 193.636 224.772C147.144 211.741 105.084 193.513 75.1985 173.445C74.1809 172.762 73.181 172.078 72.1992 171.393C72.3027 169.792 72.4365 168.201 72.6006 166.619C74.185 167.749 75.8191 168.879 77.5029 170.011C107.037 189.84 148.675 207.873 194.753 220.789C236.106 232.38 276.557 238.59 310.099 238.59C313.934 238.59 317.673 238.508 321.315 238.346C326.618 238.106 331.616 237.698 336.307 237.121Z" fill="black"/>
<path d="M310.121 239.418C276.191 239.419 235.352 233.155 193.637 221.463C147.146 208.432 105.084 190.204 75.1983 170.136C44.6889 149.649 30.3824 129.463 34.914 113.295C39.4455 97.1265 62.1598 87.3162 98.8725 85.6709L99.0575 89.8038C81.9131 90.572 67.9412 93.1203 57.5299 97.3776C47.1439 101.624 40.875 107.355 38.8974 114.411C36.9199 121.467 39.297 129.621 45.9626 138.647C52.6446 147.696 63.2568 157.134 77.5045 166.701C107.035 186.531 148.675 204.564 194.754 217.479C236.108 229.07 276.555 235.281 310.101 235.282C313.933 235.282 317.671 235.2 321.314 235.037C338.458 234.269 352.43 231.721 362.842 227.464C373.228 223.217 379.497 217.486 381.474 210.43C385.025 197.761 374.294 181.299 351.257 164.076L353.734 160.763C365.589 169.626 374.364 178.361 379.817 186.728C385.662 195.697 387.56 204.047 385.458 211.547C380.926 227.715 358.212 237.525 321.499 239.17C317.805 239.336 314.005 239.418 310.121 239.418Z" fill="#CCCCCC"/>
<path d="M213.703 17.8181C214.577 17.8181 215.286 17.1092 215.286 16.2347C215.286 15.3603 214.577 14.6514 213.703 14.6514C212.828 14.6514 212.119 15.3603 212.119 16.2347C212.119 17.1092 212.828 17.8181 213.703 17.8181Z" fill="#F2F2F2"/>
<path d="M13.7239 73.4478C15.2283 73.4478 16.4478 72.2283 16.4478 70.7239C16.4478 69.2195 15.2283 68 13.7239 68C12.2195 68 11 69.2195 11 70.7239C11 72.2283 12.2195 73.4478 13.7239 73.4478Z" fill="#CCCCCC"/>
<path d="M5.38101 193.762C8.35286 193.762 10.762 191.353 10.762 188.381C10.762 185.409 8.35286 183 5.38101 183C2.40916 183 0 185.409 0 188.381C0 191.353 2.40916 193.762 5.38101 193.762Z" fill="#CCCCCC"/>
<path d="M320.841 29.3211C322.822 29.3211 324.427 27.7154 324.427 25.7347C324.427 23.7541 322.822 22.1484 320.841 22.1484C318.861 22.1484 317.255 23.7541 317.255 25.7347C317.255 27.7154 318.861 29.3211 320.841 29.3211Z" fill="#CCCCCC"/>
<path d="M438.823 186.646C442.039 186.646 444.646 184.039 444.646 180.823C444.646 177.607 442.039 175 438.823 175C435.607 175 433 177.607 433 180.823C433 184.039 435.607 186.646 438.823 186.646Z" fill="#CCCCCC"/>
<path d="M402.506 84.0785C403.886 84.0785 405.004 82.96 405.004 81.5803C405.004 80.2005 403.886 79.082 402.506 79.082C401.126 79.082 400.008 80.2005 400.008 81.5803C400.008 82.96 401.126 84.0785 402.506 84.0785Z" fill="#CCCCCC"/>
<path d="M76.8973 60.7947C79.0498 60.7947 80.7947 59.0498 80.7947 56.8973C80.7947 54.7449 79.0498 53 76.8973 53C74.7449 53 73 54.7449 73 56.8973C73 59.0498 74.7449 60.7947 76.8973 60.7947Z" fill="#CCCCCC"/>
<path d="M379.498 269.996C380.878 269.996 381.996 268.878 381.996 267.498C381.996 266.118 380.878 265 379.498 265C378.118 265 377 266.118 377 267.498C377 268.878 378.118 269.996 379.498 269.996Z" fill="#CCCCCC"/>
<path d="M41.1094 280.219C42.8267 280.219 44.2188 278.827 44.2188 277.109C44.2188 275.392 42.8267 274 41.1094 274C39.3921 274 38 275.392 38 277.109C38 278.827 39.3921 280.219 41.1094 280.219Z" fill="#CCCCCC"/>
<path d="M123.367 323.735C125.227 323.735 126.735 322.227 126.735 320.367C126.735 318.508 125.227 317 123.367 317C121.508 317 120 318.508 120 320.367C120 322.227 121.508 323.735 123.367 323.735Z" fill="#CCCCCC"/>
<path d="M144.858 18.645H138.213V12H134.648V18.645H128V22.213H134.648V28.858H138.213V22.213H144.858V18.645Z" fill="#CCCCCC"/>
<path d="M324.584 317.172H320.41V313H318.172V317.172H314V319.411H318.172V323.583H320.41V319.411H324.584V317.172Z" fill="#CCCCCC"/>
<path d="M402.913 143.119H399.794V140H398.119V143.119H395V144.794H398.119V147.913H399.794V144.794H402.913V143.119Z" fill="#CCCCCC"/>
<path opacity="0.1" d="M212.119 84.3288C218.532 84.3288 223.73 79.1303 223.73 72.7176C223.73 66.305 218.532 61.1064 212.119 61.1064C205.706 61.1064 200.508 66.305 200.508 72.7176C200.508 79.1303 205.706 84.3288 212.119 84.3288Z" fill="black"/>
<path opacity="0.1" d="M122.924 169.301C129.336 169.301 134.535 164.103 134.535 157.69C134.535 151.278 129.336 146.079 122.924 146.079C116.511 146.079 111.312 151.278 111.312 157.69C111.312 164.103 116.511 169.301 122.924 169.301Z" fill="black"/>
<path opacity="0.1" d="M251.175 285.941C257.587 285.941 262.786 280.743 262.786 274.33C262.786 267.917 257.587 262.719 251.175 262.719C244.762 262.719 239.563 267.917 239.563 274.33C239.563 280.743 244.762 285.941 251.175 285.941Z" fill="black"/>
<path opacity="0.1" d="M212.119 187.246C218.532 187.246 223.73 182.047 223.73 175.635C223.73 169.222 218.532 164.023 212.119 164.023C205.706 164.023 200.508 169.222 200.508 175.635C200.508 182.047 205.706 187.246 212.119 187.246Z" fill="black"/>
<path opacity="0.1" d="M128.729 251.107C135.142 251.107 140.341 245.909 140.341 239.496C140.341 233.083 135.142 227.885 128.729 227.885C122.317 227.885 117.118 233.083 117.118 239.496C117.118 245.909 122.317 251.107 128.729 251.107Z" fill="black"/>
<path opacity="0.1" d="M274.397 124.967C280.81 124.967 286.009 119.769 286.009 113.356C286.009 106.944 280.81 101.745 274.397 101.745C267.985 101.745 262.786 106.944 262.786 113.356C262.786 119.769 267.985 124.967 274.397 124.967Z" fill="black"/>
<path opacity="0.1" d="M312.925 203.607C319.337 203.607 324.536 198.409 324.536 191.996C324.536 185.583 319.337 180.385 312.925 180.385C306.512 180.385 301.313 185.583 301.313 191.996C301.313 198.409 306.512 203.607 312.925 203.607Z" fill="black"/>
<path d="M212.119 140.273C220.572 140.273 227.425 133.421 227.425 124.968C227.425 116.515 220.572 109.662 212.119 109.662C203.666 109.662 196.813 116.515 196.813 124.968C196.813 133.421 203.666 140.273 212.119 140.273Z" fill="white"/>
<path d="M212.118 102.801C206.379 102.801 200.875 105.081 196.817 109.139C192.759 113.197 190.479 118.701 190.479 124.44C190.479 136.391 212.118 175.635 212.118 175.635C212.118 175.635 233.757 136.391 233.757 124.44C233.757 118.701 231.478 113.197 227.42 109.139C223.361 105.081 217.857 102.801 212.118 102.801ZM212.118 134.995C210.135 134.995 208.196 134.407 206.547 133.305C204.898 132.204 203.613 130.637 202.854 128.805C202.095 126.973 201.896 124.956 202.283 123.011C202.67 121.066 203.625 119.279 205.028 117.877C206.43 116.474 208.217 115.519 210.162 115.132C212.107 114.745 214.124 114.944 215.956 115.703C217.788 116.462 219.354 117.747 220.456 119.396C221.558 121.045 222.146 122.984 222.146 124.968C222.146 126.284 221.887 127.588 221.383 128.805C220.879 130.022 220.14 131.127 219.209 132.058C218.278 132.99 217.173 133.728 215.956 134.232C214.739 134.736 213.435 134.995 212.118 134.995Z" fill="#CCCCCC"/>
<path d="M128.729 205.719C137.183 205.719 144.035 198.866 144.035 190.413C144.035 181.96 137.183 175.107 128.729 175.107C120.276 175.107 113.424 181.96 113.424 190.413C113.424 198.866 120.276 205.719 128.729 205.719Z" fill="white"/>
<path d="M128.729 168.246C122.99 168.246 117.486 170.526 113.428 174.584C109.37 178.642 107.09 184.146 107.09 189.885C107.09 201.836 128.729 241.08 128.729 241.08C128.729 241.08 150.368 201.836 150.368 189.885C150.368 187.043 149.808 184.23 148.721 181.604C147.633 178.979 146.039 176.593 144.03 174.584C142.021 172.575 139.635 170.981 137.01 169.893C134.384 168.806 131.571 168.246 128.729 168.246ZM128.729 200.441C126.746 200.441 124.807 199.853 123.158 198.751C121.509 197.649 120.223 196.083 119.464 194.25C118.705 192.418 118.507 190.402 118.894 188.457C119.281 186.511 120.236 184.725 121.638 183.322C123.041 181.92 124.827 180.965 126.773 180.578C128.718 180.191 130.734 180.389 132.566 181.148C134.399 181.907 135.965 183.193 137.067 184.842C138.169 186.491 138.757 188.43 138.757 190.413C138.757 191.73 138.497 193.034 137.993 194.25C137.489 195.467 136.751 196.572 135.82 197.504C134.888 198.435 133.783 199.173 132.566 199.677C131.35 200.181 130.046 200.441 128.729 200.441Z" fill="#CCCCCC"/>
<path d="M312.925 158.218C321.378 158.218 328.23 151.365 328.23 142.912C328.23 134.459 321.378 127.606 312.925 127.606C304.472 127.606 297.619 134.459 297.619 142.912C297.619 151.365 304.472 158.218 312.925 158.218Z" fill="white"/>
<path d="M312.925 120.745C310.083 120.745 307.27 121.305 304.644 122.392C302.019 123.48 299.633 125.074 297.624 127.083C295.615 129.092 294.021 131.478 292.933 134.103C291.846 136.729 291.286 139.543 291.286 142.384C291.286 154.335 312.925 193.579 312.925 193.579C312.925 193.579 334.564 154.335 334.564 142.384C334.564 139.543 334.004 136.729 332.917 134.103C331.83 131.478 330.236 129.092 328.226 127.083C326.217 125.074 323.831 123.48 321.206 122.392C318.581 121.305 315.767 120.745 312.925 120.745ZM312.925 152.94C310.942 152.94 309.003 152.352 307.354 151.25C305.705 150.148 304.42 148.582 303.661 146.749C302.902 144.917 302.703 142.901 303.09 140.956C303.477 139.01 304.432 137.224 305.834 135.821C307.237 134.419 309.024 133.464 310.969 133.077C312.914 132.69 314.93 132.888 316.763 133.647C318.595 134.406 320.161 135.692 321.263 137.341C322.365 138.99 322.953 140.929 322.953 142.912C322.953 144.229 322.694 145.533 322.19 146.749C321.686 147.966 320.947 149.072 320.016 150.003C319.085 150.934 317.979 151.673 316.763 152.176C315.546 152.68 314.242 152.94 312.925 152.94Z" fill="#CCCCCC"/>
<path d="M212.119 37.3565C220.572 37.3565 227.425 30.5039 227.425 22.0508C227.425 13.5977 220.572 6.74512 212.119 6.74512C203.666 6.74512 196.813 13.5977 196.813 22.0508C196.813 30.5039 203.666 37.3565 212.119 37.3565Z" fill="white"/>
<path d="M212.118 -0.116211C206.379 -0.116198 200.875 2.16361 196.817 6.22171C192.759 10.2798 190.48 15.7838 190.479 21.5228C190.479 33.4737 212.118 72.7176 212.118 72.7176C212.118 72.7176 233.757 33.4737 233.757 21.5228C233.757 15.7838 231.478 10.2798 227.42 6.22169C223.361 2.1636 217.857 -0.116211 212.118 -0.116211ZM212.118 32.0784C210.135 32.0784 208.196 31.4903 206.547 30.3884C204.898 29.2866 203.613 27.7204 202.854 25.8881C202.095 24.0557 201.896 22.0394 202.283 20.0942C202.67 18.149 203.625 16.3622 205.028 14.9598C206.43 13.5574 208.217 12.6023 210.162 12.2154C212.107 11.8285 214.124 12.0271 215.956 12.786C217.788 13.545 219.354 14.8303 220.456 16.4794C221.558 18.1285 222.146 20.0673 222.146 22.0506C222.146 23.3675 221.887 24.6715 221.383 25.8881C220.879 27.1047 220.14 28.2102 219.209 29.1414C218.278 30.0725 217.173 30.8112 215.956 31.3151C214.739 31.8191 213.435 32.0785 212.118 32.0784Z" fill="#CCCCCC"/>
<path d="M251.175 240.552C259.628 240.552 266.48 233.699 266.48 225.246C266.48 216.793 259.628 209.94 251.175 209.94C242.722 209.94 235.869 216.793 235.869 225.246C235.869 233.699 242.722 240.552 251.175 240.552Z" fill="white"/>
<path d="M251.174 203.079C245.435 203.079 239.931 205.359 235.873 209.417C231.815 213.475 229.535 218.979 229.535 224.718C229.535 236.669 251.174 275.913 251.174 275.913C251.174 275.913 272.813 236.669 272.813 224.718C272.813 221.876 272.253 219.063 271.166 216.437C270.078 213.812 268.485 211.426 266.475 209.417C264.466 207.408 262.08 205.814 259.455 204.726C256.83 203.639 254.016 203.079 251.174 203.079ZM251.174 235.274C249.191 235.274 247.252 234.686 245.603 233.584C243.954 232.482 242.669 230.916 241.91 229.083C241.151 227.251 240.952 225.235 241.339 223.29C241.726 221.344 242.681 219.558 244.083 218.155C245.486 216.753 247.273 215.798 249.218 215.411C251.163 215.024 253.179 215.222 255.012 215.981C256.844 216.74 258.41 218.026 259.512 219.675C260.614 221.324 261.202 223.263 261.202 225.246C261.202 226.563 260.943 227.867 260.439 229.083C259.935 230.3 259.196 231.405 258.265 232.337C257.334 233.268 256.228 234.006 255.012 234.51C253.795 235.014 252.491 235.274 251.174 235.274Z" fill="#3F3D56"/>
<path d="M122.924 122.856C131.377 122.856 138.23 116.004 138.23 107.551C138.23 99.0977 131.377 92.2451 122.924 92.2451C114.471 92.2451 107.618 99.0977 107.618 107.551C107.618 116.004 114.471 122.856 122.924 122.856Z" fill="white"/>
<path d="M122.924 85.3838C117.185 85.3838 111.681 87.6636 107.623 91.7217C103.565 95.7798 101.285 101.284 101.285 107.023C101.285 118.974 122.924 158.218 122.924 158.218C122.924 158.218 144.563 118.974 144.563 107.023C144.563 101.284 142.283 95.7798 138.225 91.7217C134.167 87.6636 128.663 85.3838 122.924 85.3838ZM122.924 117.578C120.941 117.578 119.002 116.99 117.353 115.888C115.704 114.787 114.419 113.22 113.66 111.388C112.901 109.556 112.702 107.539 113.089 105.594C113.476 103.649 114.431 101.862 115.833 100.46C117.236 99.0574 119.023 98.1023 120.968 97.7154C122.913 97.3285 124.929 97.5271 126.762 98.286C128.594 99.045 130.16 100.33 131.262 101.979C132.364 103.628 132.952 105.567 132.952 107.551C132.952 108.867 132.693 110.171 132.189 111.388C131.685 112.605 130.946 113.71 130.015 114.641C129.084 115.573 127.978 116.311 126.762 116.815C125.545 117.319 124.241 117.578 122.924 117.578Z" fill="#3F3D56"/>
<path d="M274.396 80.1065C282.85 80.1065 289.702 73.2539 289.702 64.8008C289.702 56.3477 282.85 49.4951 274.396 49.4951C265.943 49.4951 259.091 56.3477 259.091 64.8008C259.091 73.2539 265.943 80.1065 274.396 80.1065Z" fill="white"/>
<path d="M274.397 42.6338C268.658 42.6338 263.154 44.9136 259.096 48.9717C255.038 53.0298 252.758 58.5338 252.758 64.2728C252.758 76.2237 274.397 115.468 274.397 115.468C274.397 115.468 296.036 76.2237 296.036 64.2728C296.036 58.5338 293.756 53.0298 289.698 48.9717C285.64 44.9136 280.136 42.6338 274.397 42.6338ZM274.397 74.8284C272.413 74.8284 270.475 74.2403 268.826 73.1384C267.177 72.0366 265.891 70.4704 265.132 68.6381C264.373 66.8057 264.175 64.7895 264.562 62.8443C264.949 60.899 265.904 59.1122 267.306 57.7098C268.708 56.3074 270.495 55.3523 272.44 54.9654C274.386 54.5785 276.402 54.7771 278.234 55.536C280.067 56.295 281.633 57.5803 282.735 59.2294C283.837 60.8785 284.425 62.8173 284.425 64.8006C284.425 67.4601 283.368 70.0108 281.488 71.8913C279.607 73.7719 277.056 74.8285 274.397 74.8284Z" fill="#3F3D56"/>
</g>
<defs>
<clipPath id="clip0_76_2">
<rect width="445" height="324" fill="white"/>
</clipPath>
</defs>
</svg>
