<svg width="352" height="281" viewBox="0 0 352 281" fill="none" xmlns="http://www.w3.org/2000/svg">
<g clip-path="url(#clip0_81_41)">
<path d="M317.257 121.077C288.019 99.2189 242.225 78.5472 191.617 64.3627C145.539 51.4475 100.596 45.2119 65.0571 46.8043L64.8721 42.6714C100.834 41.0608 146.244 47.3487 192.734 60.3793C243.813 74.696 290.103 95.6117 319.734 117.763L317.257 121.077Z" fill="#CCCCCC"/>
<path d="M314.221 137.913C314.247 157.279 310.187 176.432 302.307 194.122C301.649 195.603 300.963 197.07 300.25 198.524C286.544 226.598 263.729 249.199 235.528 262.641C207.326 276.083 175.402 279.573 144.962 272.541C114.522 265.51 87.3635 248.371 67.9151 223.922C48.4667 199.472 37.8766 169.154 37.8721 137.913C37.8721 134.715 37.981 131.542 38.1989 128.394C38.3023 126.793 38.4361 125.201 38.6002 123.62C42.2645 88.402 59.3082 55.9346 86.2142 32.9175C113.12 9.90041 147.835 -1.90986 183.196 -0.0761364C218.556 1.75759 251.864 17.0954 276.244 42.7721C300.625 68.4488 314.219 102.505 314.221 137.913Z" fill="#7472FF"/>
<path opacity="0.1" d="M302.307 194.121C301.649 195.602 300.964 197.069 300.251 198.523C296.213 198.961 291.963 199.28 287.501 199.479C283.806 199.644 280.005 199.727 276.12 199.727C242.189 199.727 201.353 193.463 159.636 181.772C113.144 168.741 71.084 150.513 41.1985 130.445C40.1809 129.762 39.181 129.078 38.1992 128.393C38.3027 126.792 38.4365 125.201 38.6006 123.619C40.185 124.749 41.8191 125.879 43.5029 127.011C73.0366 146.84 114.675 164.873 160.753 177.789C202.106 189.38 242.557 195.59 276.099 195.59C279.934 195.59 283.673 195.508 287.315 195.346C292.618 195.106 297.616 194.698 302.307 194.121Z" fill="black"/>
<path d="M276.121 196.418C242.191 196.419 201.352 190.155 159.637 178.463C113.146 165.432 71.084 147.204 41.1983 127.136C10.6889 106.649 -3.61762 86.4627 0.914031 70.2946C5.44552 54.1265 28.1598 44.3162 64.8725 42.6709L65.0575 46.8038C47.9131 47.572 33.9412 50.1203 23.5299 54.3776C13.1439 58.6245 6.87499 64.3554 4.89743 71.4113C2.91986 78.4669 5.29702 86.6211 11.9626 95.6474C18.6446 104.696 29.2568 114.134 43.5045 123.701C73.0349 143.531 114.675 161.564 160.754 174.479C202.108 186.07 242.555 192.281 276.101 192.282C279.933 192.282 283.671 192.2 287.314 192.037C304.458 191.269 318.43 188.721 328.842 184.464C339.228 180.217 345.497 174.486 347.474 167.43C351.025 154.761 340.294 138.299 317.257 121.076L319.734 117.763C331.589 126.626 340.364 135.361 345.817 143.728C351.662 152.697 353.56 161.047 351.458 168.547C346.926 184.715 324.212 194.525 287.499 196.17C283.805 196.336 280.005 196.418 276.121 196.418Z" fill="#CCCCCC"/>
<path d="M13.8973 36.7947C16.0498 36.7947 17.7947 35.0498 17.7947 32.8973C17.7947 30.7449 16.0498 29 13.8973 29C11.7449 29 10 30.7449 10 32.8973C10 35.0498 11.7449 36.7947 13.8973 36.7947Z" fill="#CCCCCC"/>
<path d="M345.498 226.996C346.878 226.996 347.996 225.878 347.996 224.498C347.996 223.118 346.878 222 345.498 222C344.118 222 343 223.118 343 224.498C343 225.878 344.118 226.996 345.498 226.996Z" fill="#CCCCCC"/>
<path d="M18.1094 201.219C19.8267 201.219 21.2188 199.827 21.2188 198.109C21.2188 196.392 19.8267 195 18.1094 195C16.3921 195 15 196.392 15 198.109C15 199.827 16.3921 201.219 18.1094 201.219Z" fill="#CCCCCC"/>
<path d="M314.109 25.2188C315.827 25.2188 317.219 23.8266 317.219 22.1094C317.219 20.3921 315.827 19 314.109 19C312.392 19 311 20.3921 311 22.1094C311 23.8266 312.392 25.2188 314.109 25.2188Z" fill="#CCCCCC"/>
<path d="M89.3673 280.735C91.227 280.735 92.7346 279.227 92.7346 277.367C92.7346 275.508 91.227 274 89.3673 274C87.5076 274 86 275.508 86 277.367C86 279.227 87.5076 280.735 89.3673 280.735Z" fill="#CCCCCC"/>
<path d="M75.858 9.645H69.213V3H65.648V9.645H59V13.213H65.648V19.858H69.213V13.213H75.858V9.645Z" fill="#CCCCCC"/>
<path d="M36 246.548H32.4524V243H30.5492V246.548H27V248.452H30.5492V252H32.4524V248.452H36V246.548Z" fill="#CCCCCC"/>
<path d="M290.584 274.172H286.41V270H284.172V274.172H280V276.411H284.172V280.583H286.41V276.411H290.584V274.172Z" fill="#CCCCCC"/>
<path opacity="0.1" d="M75.6385 168.918C82.0512 168.918 87.2497 163.719 87.2497 157.307C87.2497 150.894 82.0512 145.695 75.6385 145.695C69.2259 145.695 64.0273 150.894 64.0273 157.307C64.0273 163.719 69.2259 168.918 75.6385 168.918Z" fill="black"/>
<path opacity="0.1" d="M217.175 242.941C223.587 242.941 228.786 237.743 228.786 231.33C228.786 224.917 223.587 219.719 217.175 219.719C210.762 219.719 205.563 224.917 205.563 231.33C205.563 237.743 210.762 242.941 217.175 242.941Z" fill="black"/>
<path opacity="0.1" d="M148.64 115.445C155.052 115.445 160.251 110.247 160.251 103.834C160.251 97.4212 155.052 92.2227 148.64 92.2227C142.227 92.2227 137.028 97.4212 137.028 103.834C137.028 110.247 142.227 115.445 148.64 115.445Z" fill="black"/>
<path opacity="0.1" d="M130.64 243.861C137.052 243.861 142.251 238.663 142.251 232.25C142.251 225.837 137.052 220.639 130.64 220.639C124.227 220.639 119.028 225.837 119.028 232.25C119.028 238.663 124.227 243.861 130.64 243.861Z" fill="black"/>
<path opacity="0.1" d="M240.397 81.9675C246.81 81.9675 252.009 76.769 252.009 70.3563C252.009 63.9436 246.81 58.7451 240.397 58.7451C233.985 58.7451 228.786 63.9436 228.786 70.3563C228.786 76.769 233.985 81.9675 240.397 81.9675Z" fill="black"/>
<path opacity="0.1" d="M278.925 160.607C285.337 160.607 290.536 155.409 290.536 148.996C290.536 142.583 285.337 137.385 278.925 137.385C272.512 137.385 267.313 142.583 267.313 148.996C267.313 155.409 272.512 160.607 278.925 160.607Z" fill="black"/>
<path d="M148.64 68.4727C157.093 68.4727 163.945 61.6201 163.945 53.167C163.945 44.7139 157.093 37.8613 148.64 37.8613C140.187 37.8613 133.334 44.7139 133.334 53.167C133.334 61.6201 140.187 68.4727 148.64 68.4727Z" fill="white"/>
<path d="M148.639 31C142.9 31 137.396 33.2798 133.338 37.3379C129.28 41.396 127 46.9 127 52.639C127 64.5899 148.639 103.834 148.639 103.834C148.639 103.834 170.278 64.5899 170.278 52.639C170.278 46.9 167.998 41.396 163.94 37.3379C159.882 33.2798 154.378 31 148.639 31ZM148.639 63.1947C146.656 63.1947 144.717 62.6065 143.068 61.5046C141.419 60.4028 140.133 58.8366 139.374 57.0043C138.615 55.1719 138.417 53.1557 138.804 51.2104C139.191 49.2652 140.146 47.4784 141.548 46.076C142.951 44.6736 144.737 43.7185 146.683 43.3316C148.628 42.9447 150.644 43.1433 152.477 43.9023C154.309 44.6612 155.875 45.9465 156.977 47.5956C158.079 49.2447 158.667 51.1835 158.667 53.1668C158.667 54.4837 158.408 55.7877 157.904 57.0043C157.4 58.2209 156.661 59.3264 155.73 60.2576C154.799 61.1887 153.693 61.9274 152.477 62.4313C151.26 62.9353 149.956 63.1947 148.639 63.1947Z" fill="#CCCCCC"/>
<path d="M130.64 198.473C139.093 198.473 145.945 191.62 145.945 183.167C145.945 174.714 139.093 167.861 130.64 167.861C122.187 167.861 115.334 174.714 115.334 183.167C115.334 191.62 122.187 198.473 130.64 198.473Z" fill="white"/>
<path d="M130.639 161C124.9 161 119.396 163.28 115.338 167.338C111.28 171.396 109 176.9 109 182.639C109 194.59 130.639 233.834 130.639 233.834C130.639 233.834 152.278 194.59 152.278 182.639C152.278 179.797 151.718 176.983 150.631 174.358C149.543 171.733 147.949 169.347 145.94 167.338C143.931 165.329 141.545 163.735 138.92 162.647C136.295 161.56 133.481 161 130.639 161ZM130.639 193.195C128.656 193.195 126.717 192.607 125.068 191.505C123.419 190.403 122.133 188.837 121.374 187.004C120.615 185.172 120.417 183.156 120.804 181.21C121.191 179.265 122.146 177.478 123.548 176.076C124.951 174.674 126.737 173.719 128.683 173.332C130.628 172.945 132.644 173.143 134.477 173.902C136.309 174.661 137.875 175.947 138.977 177.596C140.079 179.245 140.667 181.183 140.667 183.167C140.667 184.484 140.408 185.788 139.904 187.004C139.4 188.221 138.661 189.326 137.73 190.258C136.799 191.189 135.693 191.927 134.477 192.431C133.26 192.935 131.956 193.195 130.639 193.195Z" fill="#CCCCCC"/>
<path d="M278.925 115.218C287.378 115.218 294.23 108.365 294.23 99.9121C294.23 91.459 287.378 84.6064 278.925 84.6064C270.472 84.6064 263.619 91.459 263.619 99.9121C263.619 108.365 270.472 115.218 278.925 115.218Z" fill="white"/>
<path d="M278.925 77.7451C276.083 77.7451 273.27 78.3048 270.644 79.3923C268.019 80.4798 265.633 82.0737 263.624 84.0831C261.615 86.0924 260.021 88.4779 258.933 91.1033C257.846 93.7286 257.286 96.5425 257.286 99.3842C257.286 111.335 278.925 150.579 278.925 150.579C278.925 150.579 300.564 111.335 300.564 99.3842C300.564 96.5425 300.004 93.7286 298.917 91.1033C297.83 88.4779 296.236 86.0924 294.226 84.0831C292.217 82.0737 289.831 80.4798 287.206 79.3923C284.581 78.3048 281.767 77.7451 278.925 77.7451ZM278.925 109.94C276.942 109.94 275.003 109.352 273.354 108.25C271.705 107.148 270.42 105.582 269.661 103.749C268.902 101.917 268.703 99.9008 269.09 97.9556C269.477 96.0104 270.432 94.2236 271.834 92.8211C273.237 91.4187 275.024 90.4636 276.969 90.0767C278.914 89.6898 280.93 89.8884 282.763 90.6474C284.595 91.4064 286.161 92.6917 287.263 94.3407C288.365 95.9898 288.953 97.9286 288.953 99.9119C288.953 101.229 288.694 102.533 288.19 103.749C287.686 104.966 286.947 106.072 286.016 107.003C285.085 107.934 283.979 108.673 282.763 109.176C281.546 109.68 280.242 109.94 278.925 109.94Z" fill="#CCCCCC"/>
<path d="M217.175 197.552C225.628 197.552 232.48 190.699 232.48 182.246C232.48 173.793 225.628 166.94 217.175 166.94C208.722 166.94 201.869 173.793 201.869 182.246C201.869 190.699 208.722 197.552 217.175 197.552Z" fill="white"/>
<path d="M217.174 160.079C211.435 160.079 205.931 162.359 201.873 166.417C197.815 170.475 195.535 175.979 195.535 181.718C195.535 193.669 217.174 232.913 217.174 232.913C217.174 232.913 238.813 193.669 238.813 181.718C238.813 178.876 238.253 176.063 237.166 173.437C236.078 170.812 234.485 168.426 232.475 166.417C230.466 164.408 228.08 162.814 225.455 161.726C222.83 160.639 220.016 160.079 217.174 160.079ZM217.174 192.274C215.191 192.274 213.252 191.686 211.603 190.584C209.954 189.482 208.669 187.916 207.91 186.083C207.151 184.251 206.952 182.235 207.339 180.29C207.726 178.344 208.681 176.558 210.083 175.155C211.486 173.753 213.273 172.798 215.218 172.411C217.163 172.024 219.179 172.222 221.012 172.981C222.844 173.74 224.41 175.026 225.512 176.675C226.614 178.324 227.202 180.263 227.202 182.246C227.202 183.563 226.943 184.867 226.439 186.083C225.935 187.3 225.196 188.405 224.265 189.337C223.334 190.268 222.228 191.006 221.012 191.51C219.795 192.014 218.491 192.274 217.174 192.274Z" fill="#3F3D56"/>
<path d="M75.6387 122.473C84.0918 122.473 90.9444 115.62 90.9444 107.167C90.9444 98.7139 84.0918 91.8613 75.6387 91.8613C67.1856 91.8613 60.333 98.7139 60.333 107.167C60.333 115.62 67.1856 122.473 75.6387 122.473Z" fill="white"/>
<path d="M75.639 85C69.9 85 64.396 87.2798 60.3379 91.3379C56.2798 95.396 54 100.9 54 106.639C54 118.59 75.639 157.834 75.639 157.834C75.639 157.834 97.278 118.59 97.278 106.639C97.278 100.9 94.9982 95.396 90.9401 91.3379C86.882 87.2798 81.378 85 75.639 85ZM75.639 117.195C73.6557 117.195 71.7169 116.607 70.0678 115.505C68.4187 114.403 67.1334 112.837 66.3745 111.004C65.6155 109.172 65.4169 107.156 65.8038 105.21C66.1908 103.265 67.1458 101.478 68.5482 100.076C69.9506 98.6736 71.7375 97.7185 73.6827 97.3316C75.6279 96.9447 77.6441 97.1433 79.4765 97.9023C81.3089 98.6612 82.875 99.9465 83.9769 101.596C85.0787 103.245 85.6669 105.183 85.6669 107.167C85.6669 108.484 85.4075 109.788 84.9036 111.004C84.3996 112.221 83.661 113.326 82.7298 114.258C81.7986 115.189 80.6931 115.927 79.4765 116.431C78.2599 116.935 76.9559 117.195 75.639 117.195Z" fill="#3F3D56"/>
<path d="M240.396 37.1065C248.85 37.1065 255.702 30.2539 255.702 21.8008C255.702 13.3477 248.85 6.49512 240.396 6.49512C231.943 6.49512 225.091 13.3477 225.091 21.8008C225.091 30.2539 231.943 37.1065 240.396 37.1065Z" fill="white"/>
<path d="M240.397 -0.366211C234.658 -0.366211 229.154 1.91361 225.096 5.97171C221.038 10.0298 218.758 15.5338 218.758 21.2728C218.758 33.2237 240.397 72.4676 240.397 72.4676C240.397 72.4676 262.036 33.2237 262.036 21.2728C262.036 15.5338 259.756 10.0298 255.698 5.97169C251.64 1.9136 246.136 -0.366211 240.397 -0.366211ZM240.397 31.8284C238.413 31.8284 236.475 31.2403 234.826 30.1384C233.177 29.0366 231.891 27.4704 231.132 25.6381C230.373 23.8057 230.175 21.7895 230.562 19.8443C230.949 17.899 231.904 16.1122 233.306 14.7098C234.708 13.3074 236.495 12.3523 238.44 11.9654C240.386 11.5785 242.402 11.7771 244.234 12.536C246.067 13.295 247.633 14.5803 248.735 16.2294C249.837 17.8785 250.425 19.8173 250.425 21.8006C250.425 24.4601 249.368 27.0108 247.488 28.8913C245.607 30.7719 243.056 31.8285 240.397 31.8284Z" fill="#3F3D56"/>
</g>
<defs>
<clipPath id="clip0_81_41">
<rect width="352" height="281" fill="white"/>
</clipPath>
</defs>
</svg>
